<svg xmlns="http://www.w3.org/2000/svg" viewBox="0 0 1067.84 273.3"><defs><style>.cls-1{font-size:141.93px;fill:#01476f;}.cls-1,.cls-2{font-family:Raleway-Bold, Raleway;font-weight:700;}.cls-2{font-size:134.89px;}</style></defs><title>Asset 1</title><g id="Layer_2" data-name="Layer 2"><g id="Layer_1-2" data-name="Layer 1"><text class="cls-1" transform="translate(391.52 121.35) scale(1.03 1)">SKYCODE</text><text class="cls-2" transform="translate(379.58 243.22) scale(1.07 1)">SHOP</text><path d="M0,35S100.39,84.25,136.3,216.88C136.3,216.88,144.26,69.43,0,35Z"/><path d="M148.72,236s47-28.4,134.28-9.51C283,226.51,194,186,148.72,236Z"/><path d="M310.11,56.92s4.05,65.53-64.74,149.42C245.37,206.34,338.13,132,310.11,56.92Z"/><path d="M227.13,46.28s21.45,54.84-12.63,154.81C214.5,201.09,271.15,99.7,227.13,46.28Z"/><path d="M147.12,90.58s58.72-30.12,176.28-4.25C323.4,86.33,201,35.71,147.12,90.58Z"/><path d="M144.67,192.81s57-30.43,170.16-6.09C314.83,186.72,197.25,138,144.67,192.81Z"/><path d="M152.63,138.94s57-30.42,170.16-6.09C322.79,132.85,205.21,84.09,152.63,138.94Z"/><path d="M119,55.69s48.81,40.54,62,144C180.91,199.67,190.47,85.84,119,55.69Z"/><path d="M131.2,43.45S298.93,8.55,359.53,30s3.06,86.92,3.06,86.92l-56.32,63s52.64-86.92,52-99.78,12.86-32.44-73.45-41C284.85,39.16,153.85,39.16,131.2,43.45Z"/><circle cx="271.18" cy="254.09" r="13.67"/><circle cx="174.02" cy="257.93" r="13.23"/></g></g></svg>